<svg width="74" height="74" viewBox="0 0 74 74" xmlns="http://www.w3.org/2000/svg"><g fill="none" fill-rule="evenodd"><path d="M3.786,68.2673 L68.271,68.2673 L68.271,3.7823 L3.786,3.7823 L3.786,68.2673 Z" fill="#FFF" transform="translate(1 1)"/><path d="M3.786,68.2673 L68.271,68.2673 L68.271,3.7823 L3.786,3.7823 L3.786,68.2673 Z" stroke="#000" stroke-width="2.5" transform="translate(1 1)"/><path d="M0.25,8.1193 L8.119,8.1193 L8.119,0.2503 L0.25,0.2503 L0.25,8.1193 Z" fill="#FFF" transform="translate(1 1)"/><path d="M0.25,8.1193 L8.119,8.1193 L8.119,0.2503 L0.25,0.2503 L0.25,8.1193 Z" stroke="#000" stroke-width="2.5" transform="translate(1 1)"/><path d="M63.929,8.1193 L71.798,8.1193 L71.798,0.2503 L63.929,0.2503 L63.929,8.1193 Z" fill="#FFF" transform="translate(1 1)"/><path d="M63.929,8.1193 L71.798,8.1193 L71.798,0.2503 L63.929,0.2503 L63.929,8.1193 Z" stroke="#000" stroke-width="2.5" transform="translate(1 1)"/><path d="M0.25,71.4603 L8.119,71.4603 L8.119,63.5913 L0.25,63.5913 L0.25,71.4603 Z" fill="#FFF" transform="translate(1 1)"/><path d="M0.25,71.4603 L8.119,71.4603 L8.119,63.5913 L0.25,63.5913 L0.25,71.4603 Z" stroke="#000" stroke-width="2.5" transform="translate(1 1)"/><path d="M63.929,71.4603 L71.798,71.4603 L71.798,63.5913 L63.929,63.5913 L63.929,71.4603 Z" fill="#FFF" transform="translate(1 1)"/><path d="M63.929,71.4603 L71.798,71.4603 L71.798,63.5913 L63.929,63.5913 L63.929,71.4603 Z" stroke="#000" stroke-width="2.5" transform="translate(1 1)"/><path d="M41.0169 34.4056L36.3769 39.0456 31.7369 34.4056 36.3769 29.7656 41.0169 34.4056 41.0169 34.4056zM36.3767 12.6407L36.3767 29.5237" stroke="#FF423C" stroke-width="2.5" transform="translate(1 1)"/><path d="M32.4144 54.655L23.4484 40.148 36.3764 11.407 49.3044 40.148 40.2264 54.837M24.939 62.2633L47.815 62.2633 47.815 54.9003 24.939 54.9003 24.939 62.2633z" stroke="#000" stroke-width="2.5" transform="translate(1 1)"/></g></svg>