<svg width="91" height="80" viewBox="0 0 91 80" xmlns="http://www.w3.org/2000/svg"><g fill="none" fill-rule="evenodd"><path d="M0.25,0.25 L88.332,0.25 L88.332,61.926 L0.25,61.926 L0.25,0.25 Z" fill="#FFF" transform="translate(1 1)"/><path d="M0.25,0.25 L88.332,0.25 L88.332,61.926 L0.25,61.926 L0.25,0.25 L0.25,0.25 Z" stroke="#000" stroke-width="2.5" transform="translate(1 1)"/><path d="M26.5553,77.0307 L62.0263,77.0307 L26.5553,77.0307 Z" fill="#FFF" transform="translate(1 1)"/><path d="M26.5553,77.0308 L62.0263,77.0308" stroke="#000" stroke-width="2.5" transform="translate(1 1)"/><path d="M0.4157,6.7749 L88.1657,6.7749 L0.4157,6.7749 Z" fill="#FFF" transform="translate(1 1)"/><path d="M.416 6.7748L88.166 6.7748M37.0626 61.677L37.0626 76.123M51.519 61.677L51.519 76.123M54.7904 45.6433L80.0084 45.6433M54.7904 51.3891L72.9854 51.3891" stroke="#000" stroke-width="2.5" transform="translate(1 1)"/><path d="M67.2356 27.8504L63.6926 24.3064 67.2356 20.7634 70.7796 24.3064 67.2356 27.8504 67.2356 27.8504zM61.3042 38.5044L61.3042 31.6174 73.1672 31.6174 73.1672 38.5044" stroke="#FF423C" stroke-width="2.5" transform="translate(1 1)"/><path d="M78.5809 38.7775L55.8899 38.7775 55.8899 16.0865 78.5809 16.0865 78.5809 38.7775 78.5809 38.7775zM8.5362 45.6433L33.7542 45.6433M8.5362 51.3891L26.7312 51.3891" stroke="#000" stroke-width="2.5" transform="translate(1 1)"/><path d="M20.9814 27.8504L17.4374 24.3064 20.9814 20.7634 24.5254 24.3074 20.9814 27.8504 20.9814 27.8504zM15.0501 38.5044L15.0501 31.6174 26.9131 31.6174 26.9131 38.5044" stroke="#FF423C" stroke-width="2.5" transform="translate(1 1)"/><path d="M32.3267,38.7775 L9.6357,38.7775 L9.6357,16.0865 L32.3267,16.0865 L32.3267,38.7775 L32.3267,38.7775 Z" stroke="#000" stroke-width="2.5" transform="translate(1 1)"/></g></svg>