<svg width="66" height="80" viewBox="0 0 66 80" xmlns="http://www.w3.org/2000/svg"><g fill="none" fill-rule="evenodd"><path d="M0.25,76.76 L50.565,76.76 L50.565,0.25 L0.25,0.25 L0.25,76.76 Z" fill="#FFF" transform="translate(1 2)"/><path d="M0.25,76.76 L50.565,76.76 L50.565,0.25 L0.25,0.25 L0.25,76.76 Z" stroke="#000" stroke-width="2.5" transform="translate(1 2)"/><path d="M8.071 14.664L15.266 14.664 15.266 7.469 8.071 7.469 8.071 14.664zM21.81 14.664L29.005 14.664 29.005 7.469 21.81 7.469 21.81 14.664zM35.549 14.664L42.744 14.664 42.744 7.469 35.549 7.469 35.549 14.664z" stroke="#000" stroke-width="2.5" transform="translate(1 2)"/><path d="M8.071 62.285L15.266 62.285 15.266 55.09 8.071 55.09 8.071 62.285zM21.81 62.285L29.005 62.285 29.005 55.09 21.81 55.09 21.81 62.285z" stroke="#FF423C" stroke-width="2.5" transform="translate(1 2)"/><path d="M8.071 28.034L15.266 28.034 15.266 20.839 8.071 20.839 8.071 28.034zM21.81 28.034L29.005 28.034 29.005 20.839 21.81 20.839 21.81 28.034zM.3349 67.6427L50.4799 67.6427" stroke="#000" stroke-width="2.5" transform="translate(1 2)"/><path d="M35.059,76.76 L63.295,76.76 L63.295,26.28 L35.059,26.28 L35.059,76.76 Z" fill="#FFF" transform="translate(1 2)"/><path d="M35.059,76.76 L63.295,76.76 L63.295,26.28 L35.059,26.28 L35.059,76.76 Z" stroke="#000" stroke-width="2.5" transform="translate(1 2)"/><path d="M35.054,67.6159 L63.3,67.6159 L35.054,67.6159 Z" fill="#FFF" transform="translate(1 2)"/><path d="M35.0542 67.616L63.2992 67.616M49.1769 70.9162L49.1769 73.6062M25.4723 70.9959L25.4723 73.6859M40.935 39.984L46.532 39.984 46.532 34.387 40.935 34.387 40.935 39.984zM51.893 39.984L57.49 39.984 57.49 34.387 51.893 34.387 51.893 39.984z" stroke="#000" stroke-width="2.5" transform="translate(1 2)"/><path d="M40.935 62.324L46.532 62.324 46.532 56.727 40.935 56.727 40.935 62.324zM51.893 62.324L57.49 62.324 57.49 56.727 51.893 56.727 51.893 62.324z" stroke="#FF423C" stroke-width="2.5" transform="translate(1 2)"/><path d="M40.935 51.12L46.532 51.12 46.532 45.523 40.935 45.523 40.935 51.12zM51.893 51.12L57.49 51.12 57.49 45.523 51.893 45.523 51.893 51.12z" stroke="#000" stroke-width="2.5" transform="translate(1 2)"/></g></svg>