<svg width="112" height="80" viewBox="0 0 112 80" xmlns="http://www.w3.org/2000/svg"><g fill="none" fill-rule="evenodd"><path d="M.25 62.436L89.059 62.436 89.059.25.25.25.25 62.436zM26.7722 77.6649L62.5362 77.6649 26.7722 77.6649z" fill="#FFF" transform="translate(1 1)"/><path d="M26.7726,77.665 L62.5366,77.665" stroke="#000" stroke-width="2.5" transform="translate(1 1)"/><path d="M0.4175,6.7818 L88.8925,6.7818 L0.4175,6.7818 Z" fill="#FFF" transform="translate(1 1)"/><path d="M0.4173,6.7821 L88.8923,6.7821" stroke="#000" stroke-width="2.5" transform="translate(1 1)"/><path d="M37.367,76.7496 L37.367,62.1836 L37.367,76.7496 Z" fill="#FFF" transform="translate(1 1)"/><path d="M37.3667,62.1843 L37.3667,76.7493" stroke="#000" stroke-width="2.5" transform="translate(1 1)"/><path d="M51.9425,76.7496 L51.9425,62.1836 L51.9425,76.7496 Z" fill="#FFF" transform="translate(1 1)"/><path d="M51.9425 62.1843L51.9425 76.7493M5.3357 13.6097L23.0367 13.6097M75.3333 13.6097L83.9733 13.6097M63.5913 13.6097L72.2313 13.6097M51.8492 13.6097L60.4892 13.6097M6.7518 62.4691L6.7518 46.6071 26.8338 46.6071 26.8338 62.2451M34.5221 62.4691L34.5221 46.6071 54.6041 46.6071 54.6041 62.2451M62.2924 62.4691L62.2924 46.6071 82.3744 46.6071 82.3744 62.2451" stroke="#000" stroke-width="2.5" transform="translate(1 1)"/><path d="M70.3458 35.1578L78.6068 26.9508 88.8448 37.4288M24.0377 40.7866L36.8227 28.0016 46.3177 37.4956 59.1917 24.6216 75.2287 40.6596" stroke="#FF423C" stroke-width="2.5" transform="translate(1 1)"/><path d="M0.25,62.436 L89.059,62.436 L89.059,0.25 L0.25,0.25 L0.25,62.436 Z" stroke="#000" stroke-width="2.5" transform="translate(1 1)"/><path d="M79.93,77.427 L108.695,77.427 L108.695,26.003 L79.93,26.003 L79.93,77.427 Z" fill="#FFF" transform="translate(1 1)"/><path d="M91.1593 51.7789L98.7533 44.1849 103.6533 49.0849 108.6683 44.0699M79.9559 44.1019L83.6099 40.4479 90.1989 47.0359 95.8189 47.0359M7 34.6660625L17.5106934 24.6216 25.544991 32.6546783 32.3977385 32.6546783" stroke="#FF423C" stroke-width="2.5" transform="translate(1 1)"/><path d="M79.93,77.665 L108.695,77.665 L108.695,26.241 L79.93,26.241 L79.93,77.665 Z" stroke="#000" stroke-width="2.5" transform="translate(1 1)"/><path d="M79.9253,70.2885 L108.6993,70.2885 L79.9253,70.2885 Z" fill="#FFF" transform="translate(1 1)"/><path d="M79.9253 70.2884L108.6993 70.2884M83.0541 32.2436L93.5241 32.2436M99.7031 35.7726L105.5701 35.7726M99.7031 32.2436L105.5701 32.2436M94.3122 73.0722L94.3122 75.1472M84.8652 69.6844L84.8652 56.2474 103.5992 56.2474 103.5992 69.4944" stroke="#000" stroke-width="2.5" transform="translate(1 1)"/></g></svg>